<svg width="14" height="14" viewBox="0 0 14 14" fill="none" xmlns="http://www.w3.org/2000/svg">
<g clip-path="url(#clip0_363_213)">
<path d="M6.23683 0.599998C3.12875 0.599998 0.599976 3.12877 0.599976 6.23685C0.599976 9.3451 3.12875 11.8737 6.23683 11.8737C9.34508 11.8737 11.8737 9.3451 11.8737 6.23685C11.8737 3.12877 9.34508 0.599998 6.23683 0.599998ZM6.23683 10.8331C3.7025 10.8331 1.64063 8.7712 1.64063 6.23687C1.64063 3.70255 3.7025 1.64065 6.23683 1.64065C8.77115 1.64065 10.833 3.70252 10.833 6.23685C10.833 8.77117 8.77115 10.8331 6.23683 10.8331Z" fill="#1F1F1F"/>
<path d="M13.2475 12.5118L10.2643 9.5286C10.061 9.32533 9.73183 9.32533 9.52856 9.5286C9.32528 9.7317 9.32528 10.0613 9.52856 10.2644L12.5118 13.2476C12.6134 13.3492 12.7464 13.4 12.8796 13.4C13.0127 13.4 13.1459 13.3492 13.2475 13.2476C13.4508 13.0445 13.4508 12.7149 13.2475 12.5118Z" fill="#1F1F1F"/>
</g>
<defs>
<clipPath id="clip0_363_213">
<rect width="12.8" height="12.8" fill="white" transform="translate(0.599976 0.599998)"/>
</clipPath>
</defs>
</svg>
